<svg width="94" height="135" viewBox="0 0 94 135" fill="none" xmlns="http://www.w3.org/2000/svg">
<g id="Group 26804">
<path id="Vector" opacity="0.1" d="M80.7489 23.7234H68.6854V35.7602H80.7489V23.7234Z" fill="#1485FD"/>
<path id="Vector_2" opacity="0.1" d="M18.196 45.6554C18.3021 45.7908 18.4039 45.9432 18.5142 46.0786H20.7581V48.9693C20.9998 49.2571 21.2374 49.5449 21.4834 49.8158V46.0617H24.8768V52.1012H23.5025C23.6382 52.2409 23.7697 52.389 23.9266 52.5245H49.7291V45.6554H18.196ZM28.9743 52.1012H25.5809V46.0871H28.9743V52.1012ZM33.0845 52.1012H29.6912V46.0871H33.0845V52.1012ZM37.1948 52.1012H33.8014V46.0871H37.1948V52.1012ZM41.3008 52.1012H37.9074V46.0871H41.3008V52.1012ZM45.4068 52.1012H42.0134V46.0871H45.4068V52.1012ZM49.5128 52.1012H46.1194V46.0871H49.5128V52.1012Z" fill="#1485FD"/>
<path id="Vector_3" opacity="0.1" d="M40.8427 65.6954C41.2286 65.9155 41.6231 66.1187 42.0219 66.3388V66.1271H45.4152V68.0317L46.1363 68.366V66.1271H49.5297V69.7881C49.5948 69.8204 49.663 69.8459 49.7333 69.8643V65.6954H40.8427Z" fill="#1485FD"/>
<path id="Vector_4" d="M58.429 7.56458H55.7694V67.3125H58.429V7.56458Z" fill="#535461"/>
<path id="Vector_5" d="M75.1412 67.1303L74.9758 69.8221L74.7382 73.6312L74.6407 75.2141L74.4074 79.0232L74.3056 80.6061L74.068 84.4152L71.3873 127.615C71.2708 129.473 70.4488 131.218 69.0887 132.493C67.7285 133.769 65.9325 134.479 64.066 134.48H50.1277C48.2617 134.479 46.4661 133.768 45.1066 132.493C43.7472 131.218 42.9261 129.473 42.8107 127.615L40.1426 84.3856L39.9051 80.5765L39.8075 78.9936L39.57 75.1845L39.4724 73.6016L39.2349 69.7925L39.0652 67.1007C39.0357 66.5826 39.1127 66.064 39.2913 65.5767C39.4699 65.0893 39.7464 64.6435 40.1039 64.2666C40.4614 63.8897 40.8923 63.5897 41.3701 63.3849C41.848 63.1801 42.3627 63.0749 42.8828 63.0757H71.3915C71.9096 63.0802 72.4213 63.1905 72.895 63.4C73.3687 63.6094 73.7944 63.9135 74.1457 64.2934C74.4971 64.6733 74.7667 65.1211 74.9379 65.609C75.1091 66.0969 75.1783 66.6147 75.1412 67.1303Z" fill="#3F3D56"/>
<path id="Vector_6" d="M74.9759 69.8221L74.7383 73.6185H39.4556L39.218 69.8221H74.9759Z" fill="#9D9CB5"/>
<path id="Vector_7" d="M74.6408 75.2014L74.4075 79.002H39.7906L39.5531 75.2014H74.6408Z" fill="#9D9CB5"/>
<path id="Vector_8" d="M74.3057 80.5891L74.0724 84.3855H40.1257L39.8882 80.5891H74.3057Z" fill="#9D9CB5"/>
<path id="Vector_9" d="M35.1587 29.9577C50.6453 41.1396 57.1097 58.6276 57.1097 58.6276C57.1097 58.6276 38.446 57.9885 22.9552 46.8067C7.46438 35.6248 1.0127 18.1411 1.0127 18.1411C1.0127 18.1411 19.6679 18.7759 35.1587 29.9577Z" fill="#1485FD"/>
<path id="Vector_10" d="M1 18.1411C1 18.1411 20.3763 28.87 26.5904 37.7537C32.8046 46.6374 57.1097 58.6276 57.1097 58.6276" stroke="#535461" stroke-width="2" stroke-miterlimit="10"/>
<path id="Vector_11" d="M45.1565 7.43315C53.5849 13.515 57.1097 23.0336 57.1097 23.0336C57.1097 23.0336 46.9508 22.6865 38.5182 16.6046C30.0856 10.5228 26.5692 1 26.5692 1C26.5692 1 36.7239 1.34704 45.1565 7.43315Z" fill="#1485FD"/>
<path id="Vector_12" d="M26.5692 1C26.5692 1 37.1142 6.84061 40.4948 11.6739C43.8755 16.5073 57.1097 23.0336 57.1097 23.0336" stroke="#535461" stroke-width="2" stroke-miterlimit="10"/>
<path id="Vector_13" d="M69.347 22.5512C59.6631 33.1701 57.6144 47.048 57.6144 47.048C57.6144 47.048 71.2685 43.7044 80.9439 33.0812C90.6194 22.4581 92.6766 8.58447 92.6766 8.58447C92.6766 8.58447 79.0309 11.9323 69.347 22.5512Z" fill="#1485FD"/>
<path id="Vector_14" d="M92.6851 8.58862C92.6851 8.58862 80.0701 19.4742 76.8634 26.9739C73.6566 34.4736 57.6144 47.0479 57.6144 47.0479" stroke="#535461" stroke-width="2" stroke-miterlimit="10"/>
</g>
</svg>
